<?xml version="1.0" encoding="UTF-8" standalone="no"?>
<!-- Created with Inkscape (http://www.inkscape.org/) -->

<svg
   xmlns:dc="http://purl.org/dc/elements/1.1/"
   xmlns:cc="http://creativecommons.org/ns#"
   xmlns:rdf="http://www.w3.org/1999/02/22-rdf-syntax-ns#"
   xmlns:svg="http://www.w3.org/2000/svg"
   xmlns="http://www.w3.org/2000/svg"
   xmlns:sodipodi="http://sodipodi.sourceforge.net/DTD/sodipodi-0.dtd"
   xmlns:inkscape="http://www.inkscape.org/namespaces/inkscape"
   width="128"
   height="128"
   viewBox="0 0 33.866666 33.866668"
   version="1.1"
   id="svg8"
   inkscape:version="0.92.4 (5da689c313, 2019-01-14)"
   sodipodi:docname="nuget-logo.svg">
  <defs
     id="defs2" />
  <sodipodi:namedview
     id="base"
     pagecolor="#ffffff"
     bordercolor="#666666"
     borderopacity="1.0"
     inkscape:pageopacity="0.0"
     inkscape:pageshadow="2"
     inkscape:zoom="2.8"
     inkscape:cx="-51.593575"
     inkscape:cy="45.714286"
     inkscape:document-units="mm"
     inkscape:current-layer="layer1"
     showgrid="false"
     units="px"
     inkscape:window-width="1920"
     inkscape:window-height="1017"
     inkscape:window-x="-8"
     inkscape:window-y="-8"
     inkscape:window-maximized="1" />
  <metadata
     id="metadata5">
    <rdf:RDF>
      <cc:Work
         rdf:about="">
        <dc:format>image/svg+xml</dc:format>
        <dc:type
           rdf:resource="http://purl.org/dc/dcmitype/StillImage" />
        <dc:title />
      </cc:Work>
    </rdf:RDF>
  </metadata>
  <g
     inkscape:label="Layer 1"
     inkscape:groupmode="layer"
     id="layer1"
     transform="translate(0,-263.13332)">
    <g
       transform="matrix(0.13333333,0,0,0.13333333,2.686368,262.73034)"
       id="layer1-3">
      <path
         style="fill:#00abec;stroke-width:3.00662851"
         class="st0"
         d="M 88.511782,153.29356 99.636328,126.2339 h 24.955012 c 9.92193,0 18.03977,-8.11796 18.03977,-18.03978 0,-9.92193 -8.11784,-18.03977 -18.03977,-18.03977 H 43.412353 L 88.511782,45.054917 v 18.03977 h 36.079558 c 24.95499,0 45.09942,20.14432 45.09942,45.099433 0,24.35364 -19.24238,43.89671 -42.99476,44.79876 l 36.6809,36.68079 c 25.85693,-18.03977 42.69409,-47.80534 42.69409,-81.47955 0,-54.720683 -44.49807,-99.2187426 -99.21875,-99.2187426 -54.720683,0 -99.2187501,44.4980596 -99.2187501,99.2187426 0,54.72057 44.4980671,99.21876 99.2187501,99.21876 10.82386,0 21.34705,-1.80398 30.9683,-5.11137 z"
         id="path3715"
         inkscape:connector-curvature="0" />
    </g>
    <text
       xml:space="preserve"
       style="font-style:normal;font-weight:normal;font-size:3.52777767px;line-height:1.25;font-family:sans-serif;letter-spacing:0px;word-spacing:0px;fill:#000000;fill-opacity:1;stroke:none;stroke-width:0.26458332"
       x="3.9876485"
       y="295.45029"
       id="text839"><tspan
         sodipodi:role="line"
         id="tspan837"
         x="3.9876485"
         y="295.45029"
         style="font-style:normal;font-variant:normal;font-weight:normal;font-stretch:normal;font-size:5.64444447px;font-family:'MV Boli';-inkscape-font-specification:'MV Boli';stroke-width:0.26458332">Serverless</tspan></text>
  </g>
</svg>
